<svg xmlns="http://www.w3.org/2000/svg" viewBox="0 0 1024 1024" role="img" aria-label="DemandPass app icon">
  <title>DemandPass · App Icon</title>
  <defs>
    <linearGradient id="bg" x1="0" y1="0" x2="0" y2="1">
      <stop offset="0" stop-color="#161620"></stop>
      <stop offset="1" stop-color="#08080D"></stop>
    </linearGradient>
  </defs>
  <rect width="1024" height="1024" rx="224" ry="224" fill="url(#bg)"></rect>
  
  
  <g transform="translate(348 244) scale(2.6) translate(-94.7 -320.4)">
    <path fill="#A31645" d="M97.7337 322.856C117.645 322.586 137.985 322.843 157.889 322.709C195.353 322.07 225.162 320.409 254.209 348.456C294.981 387.824 296.637 458.534 257.228 499.533C228.585 529.331 198.374 526.523 160.653 526.489C139.739 526.379 118.824 526.429 97.911 526.639C98.1062 519.725 94.7416 495.249 104.637 495.571C115.469 495.924 126.605 496.009 137.484 495.96L137.352 464.07L159.049 449.638L159.274 495.979C163.013 495.762 166.691 495.857 170.432 495.907L170.369 435.653C175.073 432.572 186.946 424.393 191.448 422.287C192.472 423.539 192.146 423.815 192.323 425.802L192.531 495.973C195.778 495.708 200.217 495.751 203.557 495.685C203.187 465.185 203.488 434.08 203.472 403.531L225.05 388.122C225.697 399.051 225.398 412.699 225.42 423.834L225.645 486.261C245.154 471.157 253.893 452.236 254.502 427.726C255.626 397.39 238.38 365.633 208.163 356.588C197.02 353.253 179.413 354.387 167.362 354.398L128.722 354.378C129.481 382.827 128.685 413.862 128.555 442.516C118.332 449.76 107.612 458.51 97.6855 466.326C98.3439 418.874 97.8079 370.357 97.7337 322.856Z"></path>
  </g>
</svg>