<svg xmlns="http://www.w3.org/2000/svg" viewBox="82.7 308.4 1037.5 178.60000000000002" role="img" aria-label="DemandPass — Real Fans · Real Demand">
  <title>DemandPass · Lockup horizontal</title>
  <rect x="82.7" y="308.4" width="1037.5" height="178.60000000000002" fill="#FFFFFF"></rect>
  <path fill="#A31645" d="M97.7337 322.856C117.645 322.586 137.985 322.843 157.889 322.709C195.353 322.07 225.162 320.409 254.209 348.456C294.981 387.824 296.637 458.534 257.228 499.533C228.585 529.331 198.374 526.523 160.653 526.489C139.739 526.379 118.824 526.429 97.911 526.639C98.1062 519.725 94.7416 495.249 104.637 495.571C115.469 495.924 126.605 496.009 137.484 495.96L137.352 464.07L159.049 449.638L159.274 495.979C163.013 495.762 166.691 495.857 170.432 495.907L170.369 435.653C175.073 432.572 186.946 424.393 191.448 422.287C192.472 423.539 192.146 423.815 192.323 425.802L192.531 495.973C195.778 495.708 200.217 495.751 203.557 495.685C203.187 465.185 203.488 434.08 203.472 403.531L225.05 388.122C225.697 399.051 225.398 412.699 225.42 423.834L225.645 486.261C245.154 471.157 253.893 452.236 254.502 427.726C255.626 397.39 238.38 365.633 208.163 356.588C197.02 353.253 179.413 354.387 167.362 354.398L128.722 354.378C129.481 382.827 128.685 413.862 128.555 442.516C118.332 449.76 107.612 458.51 97.6855 466.326C98.3439 418.874 97.8079 370.357 97.7337 322.856Z"></path>
  <path fill="#A31645" d="M553.415 370.786C560.388 370.554 568.449 370.753 575.507 370.753L575.746 445.926L556.706 445.93L556.634 413.06L556.634 396.399C550.112 404.661 542.674 413.356 535.897 421.497C529.309 412.923 522.068 404.435 515.141 396.101C515.273 412.683 515.306 429.267 515.241 445.849L496.42 445.869C496.166 420.823 496.087 395.775 496.184 370.728C503.859 370.707 511.9 370.559 519.535 370.95C523.923 374.94 531.65 385.318 536.23 390.58C541.378 384.588 548.034 375.895 553.415 370.786Z"></path>
  <path fill="#A31645" d="M599.753 370.714C606.119 370.663 631.361 370.08 635.672 371.09C640.207 374.378 643.877 395.498 645.304 401.637C648.731 416.409 652.274 431.155 655.933 445.872L636.506 445.915L633.619 432.703L633.352 431.599C631.35 430.127 607.214 430.831 603.125 430.858C602.256 435.901 601.071 440.932 599.957 445.93L580.353 445.937C580.71 444.209 582.007 437.71 582.521 436.363C586.245 426.606 594.542 377.087 599.753 370.714ZM607.452 413.024C613 412.984 618.623 412.898 624.164 412.933C626.004 412.9 627.379 413.19 628.741 412.33C627.103 404.291 624.764 396.492 623.12 388.624L613.031 388.629C611.487 396.348 609.586 405.39 607.452 413.024Z"></path>
  <path fill="#A31645" d="M332.595 370.673L388.96 370.735C393.533 373.415 404.873 383.867 408.972 387.824C409.463 400.794 409.098 415.377 409.035 428.469C403.002 434.336 396.024 440.277 389.676 445.883C373.169 446.203 355.374 445.927 338.786 445.941L338.75 436.639L338.768 398.823L358.357 398.865L358.292 428.241L383.321 428.091C385.504 426.361 387.702 424.249 389.767 422.344L389.605 394.944C387.853 393.115 385.616 391.315 383.671 389.652C368.772 388.761 348.146 389.527 332.655 389.36L332.595 370.673Z"></path>
  <path fill="#A31645" d="M707.805 370.674L726.713 370.697C726.954 395.759 727.015 420.823 726.898 445.886L716.949 445.882L708.15 445.898L708.109 436.151C699.712 424.696 687.833 412.125 678.737 400.17C679.131 415.393 679.302 430.622 679.251 445.85L660.488 445.849L660.229 370.784C666.313 370.755 672.397 370.78 678.48 370.856C681.862 373.763 687.219 380.667 690.24 384.375L708.222 406.501C707.367 396.391 707.784 381.212 707.805 370.674Z"></path>
  <path fill="#A31645" d="M734.221 370.692L788.982 370.784C793.794 373.982 803.798 383.465 808.471 387.683C809.028 400.873 808.746 415.622 808.76 428.928C803.52 433.917 795.029 441.422 789.459 445.859C773.065 446.101 755.866 445.872 739.421 445.873L739.412 435.601L739.418 398.752L758.614 398.74L758.58 428.225C766.647 428.204 774.715 428.237 782.782 428.323C784.878 426.544 787.185 424.32 789.238 422.435C789.099 413.348 789.154 404.07 789.116 394.967C787.462 393.142 785.271 391.361 783.39 389.726C769.043 388.754 749.192 389.592 734.209 389.369L734.221 370.692Z"></path>
  <path fill="#A31645" d="M432.281 370.697L485.666 370.662L485.686 388.979C470.084 388.881 454.48 388.881 438.877 388.979L438.863 400.132C454.322 399.912 469.873 400.312 485.342 399.856C481.216 404.738 476.06 412.307 472.2 417.647L443.855 417.615L438.78 417.659L438.816 428.251C454.239 428.699 471.131 428.41 486.671 428.461C482.458 434.328 478.193 440.158 473.878 445.951L419.693 445.895L419.732 383.307C423.806 378.997 427.99 374.792 432.281 370.697Z"></path>
  <path fill="#A31645" d="M909.972 370.881C916.655 370.901 938.024 370.082 943.084 371.552C946.029 375.34 960.408 434.995 963.631 445.513C957.06 445.472 950.488 445.542 943.919 445.723C942.751 441.012 941.636 436.288 940.573 431.551L940.111 430.895C937.368 429.721 915.431 430.398 911.059 430.455C910.112 435.451 908.892 440.719 907.816 445.717C901.886 445.494 895.561 445.638 889.593 445.679C890.306 442.596 891.091 439.434 891.9 436.362C897.369 415.598 901.882 394.56 907.501 373.849C907.87 372.489 908.834 371.617 909.972 370.881ZM915.946 413.327L926.299 413.348L936.525 413.268C934.902 406.625 933.022 395.838 930.994 389.025C930.632 388.798 930.271 388.571 929.91 388.344L926.417 388.273C924.194 388.463 923.478 388.139 921.95 389.358C919.612 396.425 917.67 405.921 915.946 413.327Z"></path>
  <path fill="#A31645" d="M1050.3 371.256C1055.94 370.93 1063.95 371.192 1069.88 371.192L1108.17 371.204L1092.88 388.901C1082.89 389.578 1066.57 389.031 1055.81 389.15C1056.05 392.672 1055.98 396.675 1055.88 400.204C1066.83 400.397 1081.33 399.722 1091.93 400.505C1095.58 403.461 1101.35 409.223 1104.96 412.607L1104.92 433.297L1093.64 444.319C1092.6 445.122 1091.69 445.572 1090.36 445.627C1072.64 446.352 1054.25 444.614 1036.59 445.878C1041.22 440.356 1046.58 432.939 1051.55 428.246C1062.92 427.894 1075.51 428.096 1086.96 428.027L1087.04 417.556L1051.66 417.606C1047.34 414.511 1041.75 408.656 1037.89 404.816C1037.69 397.578 1037.7 390.336 1037.93 383.099C1041.36 379.284 1046.35 374.412 1050.3 371.256Z"></path>
  <path fill="#A31645" d="M817.547 371.083C837.001 371.537 857.102 371.072 876.698 371.314C880.667 375.15 884.564 379.059 888.388 383.04C888.852 393.015 888.216 407.656 888.032 417.816C884.424 421.667 880.756 425.461 877.029 429.196C868.511 430 849.324 429.388 840.287 429.319C840.486 434.542 840.399 440.394 840.432 445.668C836.339 445.472 830.621 445.629 826.427 445.633C824.587 445.738 823.393 445.98 821.689 445.282C821.107 440.493 821.346 432.141 821.342 427.044L821.216 398.498L840.662 397.428L840.721 412.141C849.217 411.627 861.887 411.963 870.684 411.935L870.623 389.532C855.726 388.633 833.01 389.392 818.023 390.487C818.021 384.122 817.734 377.469 817.547 371.083Z"></path>
  <path fill="#A31645" d="M979.732 371.309C996.747 370.761 1016.73 371.252 1033.98 371.296C1029.56 377.549 1024.75 383.515 1019.58 389.16L984.583 389.342C984.477 392.927 984.515 396.642 984.503 400.238C995.49 400.133 1006.48 400.175 1017.46 400.364C1021.7 402.964 1027.24 408.592 1030.9 412.156C1030.96 419.264 1031.1 426.372 1031.34 433.477L1019.65 444.887C1017.04 446.166 973.235 445.445 966.723 445.468C970.336 439.522 975.105 433.44 979.726 428.229C990.952 428.261 1002.18 428.211 1013.4 428.077C1013.29 424.712 1013.31 421.192 1013.27 417.812C1003.03 417.409 990.661 417.745 980.295 417.815C975.769 414.045 971.608 410.103 967.305 406.084C967.224 398.576 967.2 391.337 966.616 383.836C970.525 379.425 975.031 374.871 979.732 371.309Z"></path>
  
  <text x="332.6" y="468" fill="#A31645" class="dp-tag">REAL FANS · REAL DEMAND</text>
</svg>