<svg width="705" height="128" viewBox="0 0 705 128" fill="none" xmlns="http://www.w3.org/2000/svg">
<path d="M0.138798 0.258157C12.6096 0.0890491 25.3491 0.250032 37.8155 0.166104C61.2803 -0.234119 79.9504 -1.27446 98.1434 16.2921C123.68 40.9494 124.717 85.237 100.034 110.916C82.0944 129.579 63.1724 127.82 39.5467 127.799C26.4473 127.73 13.3483 127.761 0.24966 127.893C0.371793 123.563 -1.7358 108.233 4.46234 108.434C11.2467 108.655 18.2215 108.709 25.0353 108.678L24.9526 88.7043L38.5421 79.6652L38.683 108.69C41.0248 108.554 43.3285 108.613 45.6715 108.645L45.6321 70.906C48.5783 68.9763 56.0147 63.8535 58.8344 62.5345C59.4758 63.3187 59.2716 63.4915 59.3825 64.7361L59.5128 108.686C61.5464 108.52 64.3267 108.547 66.4186 108.506C66.1869 89.4027 66.3754 69.9208 66.3654 50.7871L79.8803 41.136C80.2855 47.9812 80.0983 56.5293 80.112 63.5035L80.253 102.603C92.472 93.1431 97.9454 81.2924 98.3269 65.9411C99.0309 46.9409 88.2292 27.0506 69.3035 21.3854C62.3243 19.2966 51.2966 20.0069 43.7487 20.0138L19.5474 20.0012C20.0228 37.8196 19.5243 57.2577 19.4428 75.2045C13.0399 79.7416 6.32566 85.222 0.108106 90.1173C0.520856 60.3969 0.185147 30.0093 0.138798 0.258157Z" fill="#A31645"/>
<path d="M324.287 11.3102C329.071 11.1511 334.602 11.2876 339.444 11.2876L339.608 62.8633L326.545 62.866L326.496 40.3141V28.8831C322.021 34.5516 316.918 40.5172 312.268 46.1027C307.748 40.2201 302.78 34.3966 298.028 28.6787C298.118 40.0559 298.141 51.4332 298.096 62.8104L285.183 62.8242C285.009 45.6398 284.955 28.4552 285.021 11.2704C290.287 11.256 295.804 11.1545 301.042 11.4228C304.053 14.1603 309.354 21.2805 312.497 24.8908C316.029 20.7797 320.595 14.8155 324.287 11.3102ZM356.079 11.2608C360.447 11.2258 377.765 10.8259 380.723 11.5188C383.835 13.7747 386.353 28.265 387.332 32.4769C389.683 42.6123 392.114 52.7288 394.624 62.8262L381.295 62.8557L379.315 53.7911L379.131 53.0336C377.758 52.0237 361.198 52.5067 358.393 52.5252C357.797 55.9852 356.984 59.4369 356.219 62.866L342.769 62.8708C343.014 61.6853 343.904 57.2263 344.257 56.3022C346.812 49.608 352.504 15.6333 356.079 11.2608ZM361.362 40.2894C365.168 40.262 369.026 40.203 372.828 40.227C374.09 40.2044 375.033 40.4033 375.968 39.8133C374.844 34.2978 373.239 28.9469 372.111 23.5488L365.189 23.5522C364.13 28.8482 362.826 35.0518 361.362 40.2894ZM172.784 11.2327L211.456 11.2752C214.593 13.114 222.374 20.285 225.186 22.9999C225.523 31.8985 225.272 41.9038 225.229 50.8861C221.09 54.9115 216.302 58.9875 211.947 62.8338C200.622 63.0533 188.413 62.864 177.032 62.8736L177.007 56.4915L177.019 30.5462L190.459 30.575L190.415 50.7297L207.587 50.6268C209.085 49.4399 210.593 47.9908 212.01 46.6838L211.898 27.8849C210.696 26.63 209.162 25.3951 207.827 24.2541C197.605 23.6428 183.454 24.1683 172.825 24.0537L172.784 11.2327ZM430.213 11.2334L443.186 11.2492C443.351 28.4445 443.393 45.64 443.313 62.8358L436.487 62.8331L430.45 62.8441L430.422 56.1567C424.661 48.2975 416.511 39.6727 410.27 31.4704C410.54 41.9155 410.657 52.3624 410.622 62.8111L397.749 62.8104L397.572 11.3089C401.746 11.2892 405.92 11.3057 410.093 11.3583C412.414 13.3527 416.089 18.0895 418.162 20.6336L430.499 35.8141C429.913 28.8777 430.199 18.4635 430.213 11.2334ZM448.337 11.2457L485.908 11.3089C489.21 13.503 496.073 20.0092 499.279 22.9032C499.662 31.9527 499.468 42.0719 499.478 51.2011C495.883 54.624 490.057 59.7731 486.235 62.8173C474.988 62.9833 463.187 62.8262 451.905 62.8269L451.898 55.7794L451.903 30.4975L465.073 30.4893L465.05 50.7187C470.585 50.7046 476.119 50.727 481.654 50.786C483.092 49.5654 484.675 48.0395 486.084 46.7463C485.988 40.5117 486.026 34.1462 486 27.9007C484.865 26.6485 483.362 25.4266 482.072 24.3049C472.228 23.638 458.608 24.2129 448.329 24.0599L448.337 11.2457ZM241.178 11.2492L277.805 11.2252L277.819 23.7923C267.114 23.7251 256.409 23.7251 245.704 23.7923L245.694 31.4443C256.3 31.2934 266.97 31.5678 277.583 31.255C274.752 34.6045 271.215 39.7975 268.566 43.4613L249.119 43.4393L245.637 43.4695L245.662 50.7366C256.243 51.044 267.833 50.8457 278.495 50.8807C275.604 54.9057 272.678 58.9057 269.717 62.8804L232.542 62.842L232.568 19.9008C235.364 16.9433 238.234 14.0594 241.178 11.2492Z" fill="#F4F4F5"/>
<path d="M568.92 11.3753C573.505 11.3891 588.166 10.8271 591.638 11.8357C593.658 14.4346 603.524 55.3635 605.735 62.5798C601.227 62.5519 596.718 62.5999 592.211 62.7239C591.409 59.4915 590.644 56.2504 589.915 53.0006L589.598 52.5505C587.716 51.745 572.665 52.2095 569.666 52.2486C569.016 55.6763 568.179 59.2907 567.441 62.7198C563.372 62.5668 559.033 62.6656 554.938 62.6937C555.427 60.5785 555.966 58.4091 556.521 56.3014C560.273 42.0553 563.369 27.6213 567.225 13.4117C567.478 12.4786 568.139 11.8803 568.92 11.3753ZM573.019 40.4972L580.122 40.5116L587.138 40.4568C586.024 35.899 584.734 28.4981 583.343 23.8238L582.599 23.3566L580.203 23.3079C578.678 23.4382 578.186 23.2159 577.138 24.0523C575.534 28.9009 574.202 35.416 573.019 40.4972ZM665.198 11.6326C669.068 11.409 674.563 11.5887 678.632 11.5887L704.902 11.5969L694.412 23.7387C687.558 24.2032 676.361 23.8279 668.978 23.9096C669.143 26.326 669.095 29.0724 669.026 31.4936C676.539 31.6261 686.488 31.1629 693.76 31.7001C696.264 33.7282 700.223 37.6815 702.7 40.0032L702.672 54.1985L694.933 61.7606C694.22 62.3116 693.595 62.6203 692.683 62.658C680.525 63.1555 667.908 61.963 655.792 62.8302C658.968 59.0416 662.646 53.9529 666.056 50.7331C673.857 50.4916 682.494 50.6301 690.35 50.5828L690.405 43.3987L666.131 43.433C663.167 41.3096 659.332 37.2925 656.684 34.6579C656.546 29.692 656.553 24.7233 656.711 19.758C659.064 17.1406 662.488 13.7979 665.198 11.6326ZM505.508 11.5139C518.855 11.8254 532.646 11.5064 546.091 11.6724C548.814 14.3043 551.488 16.986 554.111 19.7175C554.43 26.5613 553.993 36.6064 553.867 43.5771C551.392 46.2195 548.875 48.8221 546.318 51.3848C540.474 51.9365 527.31 51.5166 521.11 51.4692C521.246 55.0527 521.186 59.0677 521.209 62.6862C518.401 62.5517 514.478 62.6594 511.6 62.6621C510.338 62.7342 509.519 62.9002 508.35 62.4213C507.95 59.1356 508.114 53.4054 508.112 49.9084L508.025 30.3231L521.367 29.589L521.407 39.6835C527.236 39.3309 535.929 39.5614 541.965 39.5422L541.923 24.1717C531.702 23.5549 516.117 24.0756 505.834 24.8269C505.833 20.4599 505.636 15.8953 505.508 11.5139ZM616.782 11.669C628.456 11.293 642.166 11.6299 654.001 11.6601C650.968 15.9502 647.668 20.0434 644.121 23.9164L620.11 24.0413C620.037 26.5009 620.063 29.0498 620.055 31.517C627.593 31.4449 635.133 31.4737 642.667 31.6034C645.576 33.3873 649.377 37.2486 651.888 39.6938C651.929 44.5706 652.025 49.4473 652.19 54.322L644.169 62.1503C642.379 63.0278 612.324 62.5332 607.856 62.5489C610.335 58.4694 613.607 54.2966 616.778 50.7214C624.48 50.7433 632.183 50.709 639.881 50.6171C639.806 48.3084 639.819 45.8934 639.792 43.5744C632.766 43.2979 624.28 43.5284 617.168 43.5764C614.063 40.9898 611.208 38.2853 608.256 35.5279C608.2 30.3767 608.184 25.41 607.783 20.2637C610.465 17.2373 613.556 14.1128 616.782 11.669Z" fill="#A31645"/>
<path d="M175.027 113.045V94.0036H181.815C183.29 94.0036 184.514 94.2577 185.487 94.766C186.467 95.2743 187.198 95.9778 187.681 96.8765C188.165 97.7691 188.407 98.8011 188.407 99.9726C188.407 101.138 188.162 102.164 187.672 103.05C187.189 103.93 186.457 104.615 185.478 105.105C184.505 105.595 183.281 105.839 181.805 105.839H176.664V103.366H181.545C182.475 103.366 183.231 103.233 183.814 102.966C184.402 102.7 184.833 102.312 185.106 101.804C185.379 101.296 185.515 100.685 185.515 99.9726C185.515 99.2536 185.376 98.6307 185.097 98.1038C184.824 97.5769 184.393 97.1741 183.804 96.8951C183.222 96.61 182.456 96.4674 181.508 96.4674H177.9V113.045H175.027ZM184.427 104.454L189.132 113.045H185.859L181.248 104.454H184.427Z" fill="#C9CAD3"/>
<path d="M191.614 113.045V94.0036H203.553V96.4767H194.487V102.278H202.93V104.742H194.487V110.572H203.664V113.045H191.614Z" fill="#C9CAD3"/>
<path d="M208.711 113.045H205.661L212.513 94.0036H215.832L222.685 113.045H219.635L214.252 97.4623H214.103L208.711 113.045ZM209.222 105.588H219.114V108.006H209.222V105.588Z" fill="#C9CAD3"/>
<path d="M225.146 113.045V94.0036H228.019V110.572H236.647V113.045H225.146Z" fill="#C9CAD3"/>
<path d="M246.278 113.045V94.0036H258.086V96.4767H249.151V102.278H257.24V104.742H249.151V113.045H246.278Z" fill="#C9CAD3"/>
<path d="M260.561 113.045H257.512L264.364 94.0036H267.683L274.536 113.045H271.486L266.103 97.4623H265.954L260.561 113.045ZM261.073 105.588H270.965V108.006H261.073V105.588Z" fill="#C9CAD3"/>
<path d="M292.366 94.0036V113.045H289.726L280.047 99.08H279.87V113.045H276.997V94.0036H279.656L289.344 107.987H289.521V94.0036H292.366Z" fill="#C9CAD3"/>
<path d="M306.654 99.0057C306.555 98.1255 306.146 97.4437 305.427 96.9602C304.708 96.4705 303.803 96.2257 302.712 96.2257C301.931 96.2257 301.256 96.3497 300.685 96.5976C300.115 96.8393 299.672 97.1741 299.356 97.6017C299.046 98.0232 298.891 98.5036 298.891 99.0429C298.891 99.4953 298.996 99.8858 299.207 100.214C299.424 100.543 299.706 100.819 300.053 101.042C300.406 101.259 300.784 101.442 301.187 101.59C301.59 101.733 301.978 101.851 302.35 101.944L304.209 102.427C304.816 102.576 305.439 102.777 306.078 103.031C306.716 103.286 307.308 103.62 307.854 104.036C308.399 104.451 308.839 104.965 309.174 105.579C309.515 106.193 309.685 106.927 309.685 107.783C309.685 108.861 309.406 109.819 308.849 110.655C308.297 111.492 307.494 112.152 306.44 112.636C305.393 113.119 304.125 113.361 302.638 113.361C301.212 113.361 299.979 113.135 298.937 112.682C297.896 112.23 297.081 111.588 296.492 110.758C295.903 109.921 295.578 108.929 295.516 107.783H298.398C298.454 108.471 298.677 109.044 299.068 109.503C299.464 109.955 299.969 110.293 300.583 110.516C301.203 110.733 301.882 110.841 302.619 110.841C303.431 110.841 304.153 110.714 304.785 110.46C305.424 110.2 305.926 109.84 306.292 109.382C306.657 108.917 306.84 108.374 306.84 107.755C306.84 107.191 306.679 106.729 306.357 106.369C306.041 106.01 305.61 105.712 305.064 105.477C304.525 105.241 303.915 105.034 303.233 104.854L300.983 104.24C299.458 103.825 298.249 103.214 297.357 102.409C296.47 101.603 296.027 100.537 296.027 99.2102C296.027 98.1131 296.325 97.1555 296.92 96.3373C297.515 95.5191 298.321 94.8838 299.337 94.4313C300.354 93.9726 301.5 93.7433 302.777 93.7433C304.066 93.7433 305.204 93.9695 306.189 94.422C307.181 94.8745 307.962 95.4974 308.532 96.2908C309.103 97.078 309.4 97.9829 309.425 99.0057H306.654Z" fill="#C9CAD3"/>
<path d="M321.08 106.565C320.572 106.565 320.135 106.385 319.769 106.025C319.403 105.66 319.22 105.22 319.22 104.705C319.22 104.197 319.403 103.763 319.769 103.403C320.135 103.038 320.572 102.855 321.08 102.855C321.588 102.855 322.025 103.038 322.391 103.403C322.756 103.763 322.939 104.197 322.939 104.705C322.939 105.046 322.853 105.359 322.679 105.644C322.512 105.923 322.289 106.146 322.01 106.314C321.731 106.481 321.421 106.565 321.08 106.565Z" fill="#C9CAD3"/>
<path d="M333.239 113.045V94.0036H340.026C341.502 94.0036 342.726 94.2577 343.699 94.766C344.678 95.2743 345.41 95.9778 345.893 96.8765C346.377 97.7691 346.618 98.8011 346.618 99.9726C346.618 101.138 346.373 102.164 345.884 103.05C345.4 103.93 344.669 104.615 343.69 105.105C342.716 105.595 341.492 105.839 340.017 105.839H334.875V103.366H339.757C340.686 103.366 341.443 103.233 342.025 102.966C342.614 102.7 343.045 102.312 343.318 101.804C343.59 101.296 343.727 100.685 343.727 99.9726C343.727 99.2536 343.587 98.6307 343.308 98.1038C343.036 97.5769 342.605 97.1741 342.016 96.8951C341.433 96.61 340.668 96.4674 339.72 96.4674H336.112V113.045H333.239ZM342.639 104.454L347.343 113.045H344.071L339.459 104.454H342.639Z" fill="#C9CAD3"/>
<path d="M349.826 113.045V94.0036H361.764V96.4767H352.699V102.278H361.141V104.742H352.699V110.572H361.876V113.045H349.826Z" fill="#C9CAD3"/>
<path d="M366.922 113.045H363.873L370.725 94.0036H374.044L380.896 113.045H377.847L372.464 97.4623H372.315L366.922 113.045ZM367.434 105.588H377.326V108.006H367.434V105.588Z" fill="#C9CAD3"/>
<path d="M383.358 113.045V94.0036H386.231V110.572H394.859V113.045H383.358Z" fill="#C9CAD3"/>
<path d="M410.654 113.045H404.489V94.0036H410.849C412.715 94.0036 414.317 94.3848 415.656 95.1472C416.995 95.9034 418.02 96.9912 418.733 98.4106C419.452 99.8238 419.812 101.519 419.812 103.496C419.812 105.48 419.449 107.184 418.724 108.61C418.005 110.036 416.964 111.133 415.6 111.901C414.236 112.664 412.588 113.045 410.654 113.045ZM407.362 110.535H410.496C411.946 110.535 413.152 110.262 414.112 109.716C415.073 109.165 415.792 108.368 416.269 107.327C416.747 106.279 416.985 105.003 416.985 103.496C416.985 102.003 416.747 100.735 416.269 99.6937C415.798 98.6524 415.095 97.8621 414.159 97.3228C413.223 96.7836 412.061 96.5139 410.672 96.5139H407.362V110.535Z" fill="#C9CAD3"/>
<path d="M423.096 113.045V94.0036H435.034V96.4767H425.969V102.278H434.411V104.742H425.969V110.572H435.146V113.045H423.096Z" fill="#C9CAD3"/>
<path d="M438.584 94.0036H442.071L448.133 108.805H448.356L454.418 94.0036H457.904V113.045H455.171V99.266H454.994L449.378 113.017H447.11L441.494 99.2567H441.317V113.045H438.584V94.0036Z" fill="#C9CAD3"/>
<path d="M463.402 113.045H460.352L467.204 94.0036H470.523L477.376 113.045H474.326L468.943 97.4623H468.794L463.402 113.045ZM463.913 105.588H473.805V108.006H463.913V105.588Z" fill="#C9CAD3"/>
<path d="M495.206 94.0036V113.045H492.566L482.887 99.08H482.71V113.045H479.837V94.0036H482.497L492.185 107.987H492.361V94.0036H495.206Z" fill="#C9CAD3"/>
<path d="M505.273 113.045H499.109V94.0036H505.469C507.334 94.0036 508.937 94.3848 510.275 95.1472C511.614 95.9034 512.64 96.9912 513.353 98.4106C514.072 99.8238 514.431 101.519 514.431 103.496C514.431 105.48 514.069 107.184 513.344 108.61C512.625 110.036 511.583 111.133 510.22 111.901C508.856 112.664 507.207 113.045 505.273 113.045ZM501.982 110.535H505.115C506.566 110.535 507.771 110.262 508.732 109.716C509.693 109.165 510.412 108.368 510.889 107.327C511.366 106.279 511.605 105.003 511.605 103.496C511.605 102.003 511.366 100.735 510.889 99.6937C510.418 98.6524 509.715 97.8621 508.779 97.3228C507.843 96.7836 506.68 96.5139 505.292 96.5139H501.982V110.535Z" fill="#C9CAD3"/>
</svg>
